<svg xmlns="http://www.w3.org/2000/svg" fill="none" style="cursor: pointer;" viewBox="0 0.93 150 26.13"><path fill="#000" d="M38.934 26.485c-1.043 0-2.01-.169-2.9-.506a6.927 6.927 0 01-2.295-1.402 5.305 5.305 0 01-1.399-2.11l3.13-1.163c.206.64.612 1.158 1.219 1.554.607.396 1.355.594 2.245.594.684 0 1.287-.126 1.809-.38.521-.252.927-.618 1.218-1.099.291-.48.437-1.057.437-1.73v-3.135l.64.759c-.478.825-1.12 1.449-1.923 1.87-.805.421-1.72.632-2.746.632-1.3 0-2.463-.295-3.49-.885a6.367 6.367 0 01-2.41-2.427c-.583-1.027-.873-2.181-.873-3.462 0-1.297.29-2.451.872-3.462a6.377 6.377 0 012.386-2.389c1.01-.58 2.156-.871 3.438-.871 1.043 0 1.963.214 2.758.644.796.43 1.459 1.049 1.989 1.857l-.462.835V7.176h3.182v13.066c0 1.196-.295 2.266-.886 3.21a6.226 6.226 0 01-2.411 2.223c-1.018.54-2.194.81-3.528.81zm-.154-9.174c.718 0 1.347-.156 1.886-.468a3.346 3.346 0 001.27-1.301c.307-.556.462-1.196.462-1.921 0-.708-.159-1.344-.475-1.908a3.51 3.51 0 00-1.283-1.327c-.539-.32-1.159-.48-1.86-.48-.702 0-1.334.16-1.899.48a3.423 3.423 0 00-1.32 1.327c-.318.565-.475 1.2-.475 1.908s.157 1.34.474 1.895a3.47 3.47 0 001.308 1.314c.556.321 1.194.48 1.912.48zM55.713 21.228c-1.369 0-2.613-.312-3.733-.935a7.127 7.127 0 01-2.668-2.553c-.659-1.077-.988-2.307-.988-3.69 0-1.38.33-2.61.988-3.69a7.163 7.163 0 012.655-2.552c1.112-.623 2.36-.935 3.746-.935 1.368 0 2.608.312 3.72.935a7.2 7.2 0 012.656 2.54c.658 1.07.987 2.304.987 3.702 0 1.382-.333 2.613-1 3.69a7.259 7.259 0 01-2.669 2.553c-1.111.623-2.343.935-3.694.935zm0-3.033c.752 0 1.415-.177 1.989-.53a3.759 3.759 0 001.36-1.479c.333-.631.5-1.343.5-2.136 0-.808-.167-1.52-.5-2.135a3.902 3.902 0 00-1.36-1.466c-.574-.362-1.237-.543-1.989-.543-.77 0-1.446.181-2.027.543-.581.363-1.039.851-1.372 1.466-.334.616-.5 1.327-.5 2.135 0 .793.166 1.505.5 2.136.333.632.79 1.125 1.372 1.479.581.354 1.257.53 2.027.53zM65.617 25.98V7.175h3.155v2.73l-.307-.682a4.88 4.88 0 011.95-1.732c.82-.412 1.77-.619 2.847-.619 1.317 0 2.506.32 3.567.96 1.06.641 1.902 1.5 2.527 2.579.624 1.078.936 2.291.936 3.639 0 1.331-.307 2.544-.923 3.64a6.892 6.892 0 01-2.515 2.59c-1.06.632-2.266.947-3.617.947-1.01 0-1.937-.198-2.784-.594a4.82 4.82 0 01-2.014-1.706l.539-.657v7.709h-3.361zm7.235-7.785c.77 0 1.453-.177 2.052-.53a3.687 3.687 0 001.398-1.466c.334-.623.5-1.34.5-2.149 0-.808-.166-1.52-.5-2.135a3.805 3.805 0 00-1.398-1.466c-.599-.362-1.283-.543-2.052-.543-.736 0-1.398.177-1.989.53a3.697 3.697 0 00-1.385 1.48c-.334.63-.5 1.343-.5 2.134 0 .81.166 1.526.5 2.149a3.716 3.716 0 001.385 1.466c.59.354 1.253.53 1.989.53zM82.858 20.925V1.793h3.36v19.132h-3.36zM93.556 21.228c-.974 0-1.821-.16-2.54-.48-.718-.32-1.274-.78-1.667-1.378-.394-.598-.59-1.293-.59-2.085 0-.758.17-1.436.513-2.034.342-.598.872-1.1 1.59-1.504.72-.404 1.626-.69 2.72-.86l4.567-.732v2.527l-3.926.657c-.667.118-1.162.329-1.487.632-.326.303-.488.7-.488 1.188 0 .472.183.846.552 1.124.367.278.825.417 1.373.417.7 0 1.32-.147 1.86-.442.538-.294.957-.703 1.257-1.225.299-.522.449-1.095.449-1.719v-3.538c0-.59-.236-1.083-.706-1.479-.47-.395-1.09-.594-1.86-.594-.718 0-1.356.19-1.911.569-.557.38-.963.88-1.22 1.504l-2.745-1.314a4.771 4.771 0 011.296-1.883 6.553 6.553 0 012.091-1.251 7.358 7.358 0 012.617-.455c1.146 0 2.155.206 3.027.619.873.413 1.553.986 2.04 1.719.488.732.731 1.588.731 2.565v9.148h-3.181v-2.35l.718-.05a5.58 5.58 0 01-1.282 1.478c-.496.396-1.061.7-1.694.91a6.632 6.632 0 01-2.104.316zM110.926 21.228c-1.386 0-2.63-.316-3.734-.948a6.967 6.967 0 01-2.604-2.578c-.633-1.086-.949-2.312-.949-3.677 0-1.364.316-2.586.949-3.664a6.902 6.902 0 012.604-2.552c1.103-.623 2.348-.936 3.734-.936.991 0 1.915.173 2.77.519a6.904 6.904 0 012.219 1.415 5.165 5.165 0 011.348 2.135l-2.951 1.264a3.446 3.446 0 00-1.296-1.668c-.607-.421-1.304-.632-2.091-.632-.736 0-1.389.177-1.963.53a3.695 3.695 0 00-1.347 1.466c-.324.624-.487 1.34-.487 2.148 0 .81.163 1.526.487 2.149a3.692 3.692 0 001.347 1.465c.574.354 1.227.531 1.963.531.804 0 1.505-.21 2.104-.632a3.453 3.453 0 001.283-1.693l2.951 1.314a5.536 5.536 0 01-1.334 2.085 6.564 6.564 0 01-2.207 1.44c-.856.346-1.788.519-2.796.519zM126.422 21.228c-1.437 0-2.694-.32-3.772-.96a6.727 6.727 0 01-2.514-2.603c-.599-1.095-.898-2.308-.898-3.64 0-1.38.303-2.607.91-3.677a6.814 6.814 0 012.489-2.54c1.052-.623 2.228-.935 3.528-.935 1.094 0 2.056.177 2.886.53a6.16 6.16 0 012.117 1.467 6.561 6.561 0 011.334 2.135c.308.8.462 1.664.462 2.59 0 .237-.013.48-.039.734a2.679 2.679 0 01-.141.656h-10.775v-2.527h8.877l-1.591 1.188c.154-.775.116-1.466-.116-2.072a2.97 2.97 0 00-1.128-1.44c-.522-.355-1.151-.531-1.886-.531-.701 0-1.325.173-1.873.518-.548.345-.962.85-1.244 1.516-.282.666-.39 1.47-.321 2.413-.069.843.047 1.589.347 2.237.298.649.744 1.15 1.334 1.504.59.354 1.27.53 2.04.53.769 0 1.423-.16 1.962-.48.539-.32.962-.75 1.27-1.289l2.72 1.314a4.694 4.694 0 01-1.283 1.744 6.428 6.428 0 01-2.065 1.188c-.796.287-1.672.43-2.63.43zM135.504 5.635V2.097h3.361v3.538h-3.361zm0 15.29V7.176h3.361v13.749h-3.361zM148.332 21.076c-1.574 0-2.792-.425-3.656-1.276-.863-.85-1.295-2.05-1.295-3.601v-6.066h-2.412V7.176h.256c.684 0 1.215-.177 1.591-.53.376-.354.565-.868.565-1.542V4.042h3.361v3.134h3.207v2.957h-3.207v5.889c0 .455.08.843.244 1.163.162.32.418.564.769.732.35.169.799.253 1.347.253.12 0 .261-.008.424-.025l.474-.05v2.83a28.57 28.57 0 01-.821.1 7.88 7.88 0 01-.847.051z"/><path fill="#FC0444" d="M13.258 21.178c-1.368 0-2.612-.312-3.733-.936a7.134 7.134 0 01-2.668-2.552c-.659-1.078-.988-2.308-.988-3.69 0-1.381.33-2.611.988-3.69a7.163 7.163 0 012.655-2.552c1.112-.623 2.36-.935 3.746-.935 1.369 0 2.609.311 3.72.935a7.2 7.2 0 012.656 2.54c.658 1.07.988 2.304.988 3.702 0 1.382-.334 2.612-1 3.69a7.266 7.266 0 01-2.67 2.552c-1.111.624-2.343.936-3.694.936zm0-3.033c.753 0 1.416-.177 1.989-.53a3.76 3.76 0 001.36-1.48c.333-.631.5-1.343.5-2.135 0-.809-.167-1.52-.5-2.135a3.902 3.902 0 00-1.36-1.466c-.573-.362-1.236-.543-1.989-.543-.77 0-1.445.18-2.026.543-.582.362-1.04.85-1.373 1.466-.334.615-.5 1.326-.5 2.135 0 .793.166 1.504.5 2.136.334.631.79 1.124 1.373 1.478.581.354 1.257.53 2.026.53z"/><path fill="#FC0444" d="M25.281 25.874a2.487 2.487 0 01-1.773.717l-10.248-.008c-3.413 0-6.621-1.31-9.034-3.687-2.414-2.378-3.743-5.538-3.743-8.9 0-3.363 1.33-6.523 3.743-8.9 2.413-2.378 5.622-3.687 9.034-3.687 3.4 0 6.597 1.303 9.002 3.672 2.404 2.368 3.728 5.517 3.728 8.867l.019 10.185c.003.317-.059.635-.184.938a2.481 2.481 0 01-.544.803zM5.801 6.647a10.389 10.389 0 00-3.09 7.35c0 2.775 1.097 5.384 3.09 7.347a10.568 10.568 0 007.46 3.044l10.255.009c.04 0 .075-.007.109-.02a.284.284 0 00.14-.144.231.231 0 00.016-.087l-.02-10.195c.001-2.766-1.091-5.364-3.075-7.318a10.512 10.512 0 00-7.425-3.028 10.56 10.56 0 00-7.46 3.042z"/><path fill="#FC0444" d="M23.529 27.067h-.026l-10.243-.009c-3.542 0-6.871-1.359-9.375-3.826C1.38 20.765 0 17.485 0 13.996c0-3.49 1.38-6.77 3.885-9.237C6.389 2.292 9.719.934 13.26.934c3.53 0 6.848 1.353 9.342 3.811 2.496 2.458 3.87 5.727 3.87 9.203l.019 10.184a2.83 2.83 0 01-.22 1.119 2.963 2.963 0 01-2.743 1.816zM13.263 1.885c-3.287 0-6.374 1.26-8.696 3.547S.966 10.76.965 13.996c.001 3.235 1.28 6.276 3.602 8.563a12.31 12.31 0 008.693 3.548l10.248.009.02.475v-.476a1.999 1.999 0 001.85-1.228c.101-.24.151-.494.148-.748l-.02-10.19c.001-3.223-1.272-6.253-3.585-8.532a12.259 12.259 0 00-8.658-3.532zm10.255 22.987l-10.258-.009a11.05 11.05 0 01-7.8-3.183c-2.084-2.053-3.232-4.782-3.232-7.684 0-2.862 1.178-5.663 3.231-7.685a11.043 11.043 0 017.8-3.182h.002c2.935 0 5.692 1.125 7.767 3.168 2.075 2.044 3.217 4.762 3.217 7.653l.019 10.195a.683.683 0 01-.05.26.77.77 0 01-.42.417.786.786 0 01-.276.05zM13.26 4.08c-2.69 0-5.217 1.03-7.118 2.903a9.914 9.914 0 00-2.948 7.013 9.778 9.778 0 002.948 7.012 10.084 10.084 0 007.12 2.904l10.036.009-.019-9.97a9.733 9.733 0 00-2.934-6.982 10.027 10.027 0 00-7.08-2.89h-.005z"/><path fill="#FC0444" d="M25.281 25.874a2.487 2.487 0 01-1.773.717l-10.248-.008c-3.413 0-6.621-1.31-9.034-3.687-2.414-2.378-3.743-5.538-3.743-8.9 0-3.363 1.33-6.523 3.743-8.9 2.413-2.378 5.622-3.687 9.034-3.687 3.4 0 6.597 1.303 9.002 3.672 2.404 2.368 3.728 5.517 3.728 8.867l.019 10.185c.003.317-.059.635-.184.938a2.481 2.481 0 01-.544.803zM5.801 6.647a10.389 10.389 0 00-3.09 7.35c0 2.775 1.097 5.384 3.09 7.347a10.568 10.568 0 007.46 3.044l10.255.009c.04 0 .075-.007.109-.02a.284.284 0 00.14-.144.231.231 0 00.016-.087l-.02-10.195c.001-2.766-1.091-5.364-3.075-7.318a10.512 10.512 0 00-7.425-3.028 10.56 10.56 0 00-7.46 3.042z"/><path fill="#FC0444" d="M23.529 27.067h-.026l-10.243-.009c-3.542 0-6.871-1.359-9.375-3.826C1.38 20.765 0 17.485 0 13.996c0-3.49 1.38-6.77 3.885-9.237C6.389 2.292 9.719.934 13.26.934c3.53 0 6.848 1.353 9.342 3.811 2.496 2.458 3.87 5.727 3.87 9.203l.019 10.184a2.83 2.83 0 01-.22 1.119 2.963 2.963 0 01-2.743 1.816zM13.263 1.885c-3.287 0-6.374 1.26-8.696 3.547S.966 10.76.965 13.996c.001 3.235 1.28 6.276 3.602 8.563a12.31 12.31 0 008.693 3.548l10.248.009.02.475v-.476a1.999 1.999 0 001.85-1.228c.101-.24.151-.494.148-.748l-.02-10.19c.001-3.223-1.272-6.253-3.585-8.532a12.259 12.259 0 00-8.658-3.532zm10.255 22.987l-10.258-.009a11.05 11.05 0 01-7.8-3.183c-2.084-2.053-3.232-4.782-3.232-7.684 0-2.862 1.178-5.663 3.231-7.685a11.043 11.043 0 017.8-3.182h.002c2.935 0 5.692 1.125 7.767 3.168 2.075 2.044 3.217 4.762 3.217 7.653l.019 10.195a.683.683 0 01-.05.26.77.77 0 01-.42.417.786.786 0 01-.276.05zM13.26 4.08c-2.69 0-5.217 1.03-7.118 2.903a9.914 9.914 0 00-2.948 7.013 9.778 9.778 0 002.948 7.012 10.084 10.084 0 007.12 2.904l10.036.009-.019-9.97a9.733 9.733 0 00-2.934-6.982 10.027 10.027 0 00-7.08-2.89h-.005z"/></svg>