<svg xmlns="http://www.w3.org/2000/svg" xmlns:xlink="http://www.w3.org/1999/xlink" version="1.1" viewBox="2.89 5 153.12 29.63"><!-- Generator: Sketch 44.1 (41455) - http://www.bohemiancoding.com/sketch -->
 <title>Artboard 2</title>
 <desc>Created with Sketch.</desc>
 <g id="Page-1" fill-rule="evenodd" fill="none">
  <g id="Artboard-2" fill="#E85F3A">
   <g id="logo" transform="translate(2 5)">
    <g id="cuadros" transform="translate(15.274 15.092) rotate(-90) translate(-14 -14.5)">
     <polygon id="path42" points="11.267 13.15 0.12983 13.15 0.12983 24.617 11.267 24.617" fill-rule="nonzero"/>
     <polygon id="path44" stroke="#E85F3A" stroke-width=".66667" points="12.133 12.062 27.817 12.062 27.817 28.172 12.133 28.172"/>
     <polygon id="path46" points="13.064 0.11229 24.009 0.11229 24.009 11.097 13.064 11.097" fill-rule="nonzero"/>
     <polygon id="path48" stroke="#E85F3A" stroke-width=".66667" points="2.8218 2.4862 12.133 2.4862 12.133 12.061 2.8218 12.061"/>
    </g>
    <g id="letras" transform="translate(33.882)">
     <path id="PORTAL" d="m6.5132 1.0585c0.6586 0.6116 0.9878 1.3748 0.9878 2.2896 0 0.9147-0.3112 1.6884-0.9337 2.3209-0.6226 0.6325-1.5769 0.9487-2.8631 0.9487h-1.9447v4.4223h-1.7595v-10.899l3.7042 0.00014c1.2142 0 2.1505 0.30579 2.809 0.91736zm-4.7537 4.1635h1.9447c0.6688 0 1.1679-0.162 1.4971-0.4861 0.3293-0.3241 0.4939-0.7762 0.4939-1.3565 0-0.5802-0.1646-1.0324-0.4939-1.3564-0.3292-0.3241-0.8283-0.4862-1.4971-0.4862h-1.9447v3.6852zm14.476 3.2227c0.684-0.7266 1.027-1.6832 1.027-2.8698s-0.343-2.1406-1.027-2.8619c-0.684-0.7214-1.566-1.0821-2.647-1.0821-1.08 0-1.962 0.3607-2.647 1.0821-0.684 0.7213-1.0261 1.6753-1.0261 2.8619s0.3421 2.1432 1.0261 2.8698c0.685 0.7266 1.567 1.0898 2.647 1.0898 1.081 0 1.963-0.3632 2.647-1.0898zm-6.5361 1.1291c-1.0599-1.0507-1.5898-2.3837-1.5898-3.9989s0.5299-2.9482 1.5898-3.9989c1.0601-1.0507 2.3591-1.576 3.8971-1.576s2.835 0.52534 3.889 1.576c1.055 1.0507 1.582 2.3837 1.582 3.9989s-0.527 2.9482-1.582 3.9989c-1.054 1.0502-2.351 1.5762-3.889 1.5762s-2.837-0.526-3.8971-1.5762zm12.369-2.9561v4.4223h-1.76v-10.899l3.705 0.00014c1.214 0 2.15 0.30579 2.809 0.91736 0.658 0.6116 0.987 1.3879 0.987 2.3288 0 0.7318-0.218 1.3904-0.656 1.9759-0.437 0.5854-1.108 0.967-2.014 1.1448l2.84 4.532h-2.145l-2.686-4.4223h-1.08zm0-5.0809v3.6852h1.945c0.668 0 1.167-0.162 1.497-0.4861 0.329-0.3241 0.494-0.7762 0.494-1.3565 0-0.5802-0.165-1.0324-0.494-1.3564-0.33-0.3241-0.829-0.4862-1.497-0.4862h-1.945zm6.951 0v-1.3957l7.486 0.00004v1.3957h-2.855v9.5032h-1.76v-9.5032h-2.871zm16.012 9.5032l-0.772-2.2268h-4.491l-0.772 2.2268h-1.837l3.844-10.915 2.037 0.00045 3.843 10.915h-1.852zm-4.785-3.6225h3.535l-1.76-5.128-1.775 5.128zm7.816-7.2764h1.76v9.5346h3.627v1.3643h-5.387v-10.899z"/>
     <path id=".com" d="m93.868 27.278c-0.161 0-0.3-0.059-0.417-0.178-0.116-0.118-0.175-0.26-0.175-0.423 0-0.164 0.059-0.305 0.175-0.424 0.117-0.118 0.256-0.178 0.417-0.178s0.3 0.06 0.417 0.178c0.117 0.119 0.175 0.26 0.175 0.424 0 0.163-0.058 0.305-0.175 0.423-0.117 0.119-0.256 0.178-0.417 0.178zm1.418-3.35c0-1.039 0.294-1.878 0.882-2.516s1.353-0.957 2.295-0.957c1.547 0 2.527 0.703 2.947 2.11h-0.91c-0.13-0.45-0.38-0.799-0.726-1.049-0.351-0.249-0.788-0.374-1.311-0.374-0.684 0-1.24 0.239-1.667 0.718-0.427 0.478-0.64 1.166-0.64 2.062s0.213 1.585 0.64 2.068c0.427 0.482 0.983 0.724 1.667 0.724 0.523 0 0.96-0.125 1.311-0.375 0.346-0.249 0.596-0.599 0.726-1.049h0.91c-0.21 0.638-0.56 1.15-1.05 1.534-0.492 0.385-1.124 0.577-1.897 0.577-0.942 0-1.707-0.319-2.295-0.957-0.588-0.639-0.882-1.477-0.882-2.516zm11.834 2.037c0.5-0.499 0.75-1.18 0.75-2.043 0-0.864-0.24-1.543-0.72-2.038-0.47-0.495-1.05-0.742-1.74-0.742-0.68 0-1.25 0.245-1.71 0.736s-0.69 1.174-0.69 2.05c0 0.875 0.22 1.558 0.65 2.049 0.44 0.491 1 0.737 1.68 0.737 0.69 0 1.28-0.25 1.78-0.749zm-4.08 0.479c-0.59-0.639-0.89-1.475-0.89-2.51s0.32-1.874 0.94-2.516c0.63-0.642 1.42-0.963 2.36-0.963s1.73 0.321 2.35 0.963c0.63 0.642 0.95 1.477 0.95 2.504 0 1.026-0.33 1.863-0.99 2.509-0.66 0.647-1.47 0.97-2.41 0.97-0.95 0-1.72-0.319-2.31-0.957zm7.56-5.867v1.093c0.44-0.81 1.17-1.215 2.19-1.215 0.52 0 0.99 0.126 1.4 0.38 0.42 0.254 0.73 0.626 0.93 1.117 0.22-0.475 0.55-0.843 0.97-1.105s0.91-0.392 1.46-0.392c0.73 0 1.34 0.243 1.83 0.73s0.74 1.188 0.74 2.105v3.988h-0.84v-3.829c0-0.736-0.17-1.297-0.52-1.681-0.35-0.385-0.83-0.577-1.44-0.577s-1.09 0.192-1.44 0.577c-0.35 0.384-0.52 0.945-0.52 1.681v3.829h-0.83v-3.829c0-0.736-0.18-1.297-0.53-1.681-0.35-0.385-0.83-0.577-1.44-0.577s-1.08 0.192-1.43 0.577c-0.35 0.384-0.53 0.945-0.53 1.681v3.829h-0.85v-6.701h0.85z"/>
     <path id="TERRENO" d="m0 15.841v-2.002h10.74v2.002h-4.0966v13.635h-2.5245v-13.635h-4.1189zm21.091-2.025v2.003h-5.979v4.747h5.314v1.98h-5.314v4.928h5.979v2.002h-8.504v-15.66h8.504zm4.925 9.315v6.345h-2.525v-15.637h5.315c1.742 0 3.085 0.439 4.03 1.316 0.945 0.878 1.417 1.991 1.417 3.341 0 1.05-0.313 1.995-0.941 2.835-0.627 0.84-1.59 1.388-2.89 1.643l4.075 6.502h-3.078l-3.853-6.345h-1.55zm0-7.29v5.288h2.79c0.959 0 1.675-0.233 2.148-0.698 0.472-0.465 0.709-1.113 0.709-1.946 0-0.832-0.237-1.481-0.709-1.946-0.473-0.465-1.189-0.698-2.148-0.698h-2.79zm13.295 7.29v6.345h-2.524v-15.637h5.315c1.742 0 3.085 0.439 4.03 1.316 0.945 0.878 1.417 1.991 1.417 3.341 0 1.05-0.314 1.995-0.941 2.835s-1.591 1.388-2.89 1.643l4.075 6.502h-3.078l-3.854-6.345h-1.55zm0-7.29v5.288h2.791c0.959 0 1.675-0.233 2.148-0.698 0.472-0.465 0.708-1.113 0.708-1.946 0-0.832-0.236-1.481-0.708-1.946-0.473-0.465-1.189-0.698-2.148-0.698h-2.791zm19.275-2.025v2.003h-5.979v4.747h5.315v1.98h-5.315v4.928h5.979v2.002h-8.503v-15.66h8.503zm12.521 0h2.524v15.66h-2.524l-7.596-11.677v11.677h-2.524v-15.66h2.524l7.596 11.655v-11.655zm15.964 11.937c0.982-1.043 1.473-2.415 1.473-4.118 0-1.702-0.491-3.071-1.473-4.106s-2.248-1.553-3.798-1.553-2.816 0.518-3.798 1.553-1.472 2.404-1.472 4.106c0 1.703 0.49 3.075 1.472 4.118 0.982 1.042 2.248 1.563 3.798 1.563s2.816-0.521 3.798-1.563zm-9.378 1.62c-1.521-1.508-2.281-3.42-2.281-5.738 0-2.317 0.76-4.23 2.281-5.737 1.52-1.508 3.384-2.262 5.591-2.262s4.067 0.754 5.581 2.262c1.513 1.507 2.269 3.42 2.269 5.737 0 2.318-0.756 4.23-2.269 5.738-1.514 1.507-3.374 2.261-5.581 2.261s-4.071-0.754-5.591-2.261z"/>
    </g>
   </g>
  </g>
 </g>
</svg>